# xmcd
#
# Track frame offsets:
# 150
# 14689
# 26265
# 45988
# 57667
# 72240
# 84783
# 99466
# 116143
# 125063
# 139426
# 155519
#
# Disc length: 2282 seconds
#
#
# Revision: 3
# Processed by: cddbd v1.5.1PL2 Copyright (c) Steve Scherf et al.
# Submitted via: FreeRIP 2.944 
#
DISCID=a408e80c
DTITLE=Evan Dando - Baby I'm Bored
DYEAR=2003
DGENRE=Rock
TTITLE0=Repeat
TTITLE1=My Idea
TTITLE2=Rancho Sante Fe
TTITLE3=Waking Up
TTITLE4=Hard Drive
TTITLE5=Shots Is Fired
TTITLE6=It Looks Like You
TTITLE7=The Same Thing
TTITLE8=Why Do You Do This To Yourself?
TTITLE9=All My Life
TTITLE10=Stop My Head
TTITLE11=In The Grass All Wine Colored
EXTD=
EXTT0=
EXTT1=
EXTT2=
EXTT3=
EXTT4=
EXTT5=
EXTT6=
EXTT7=
EXTT8=
EXTT9=
EXTT10=
EXTT11=
PLAYORDER=
